<svg width="16" height="15" viewBox="0 0 16 15" fill="none" xmlns="http://www.w3.org/2000/svg">
<path d="M9.6001 9L9.6001 6L6.4001 6L6.4001 9L9.6001 9Z" fill="white"/>
<path d="M9.6001 15L9.6001 12L6.4001 12L6.4001 15L9.6001 15Z" fill="white"/>
<path d="M9.6001 3L9.6001 0L6.4001 -1.45687e-07L6.4001 3L9.6001 3Z" fill="white"/>
<path d="M3.19995 9L3.19995 6L-4.88758e-05 6L-4.90104e-05 9L3.19995 9Z" fill="white"/>
<path d="M16 9L16 6L12.8 6L12.8 9L16 9Z" fill="white"/>
<path d="M3.19995 15L3.19995 12L-4.88758e-05 12L-4.90104e-05 15L3.19995 15Z" fill="white"/>
<path d="M16 15L16 12L12.8 12L12.8 15L16 15Z" fill="white"/>
<path d="M3.19995 3L3.19995 0L-4.88758e-05 -1.45681e-07L-4.90104e-05 3L3.19995 3Z" fill="white"/>
<path d="M16 3L16 0L12.8 -1.39876e-07L12.8 3L16 3Z" fill="white"/>
</svg>
