<svg width="187" height="192" viewBox="0 0 187 192" fill="none" xmlns="http://www.w3.org/2000/svg">
<path d="M183.057 60.4949L128.495 115.225L61.6709 59.5904L113.204 0.485229L183.057 60.4949Z" fill="#A0A0A0"/>
<path d="M186.086 87.292L115.37 118.443L73.3237 42.3216L142.799 5.9751L186.086 87.292Z" fill="#E5E5E5"/>
<path d="M145.588 125.637C163.458 94.4123 152.632 54.6138 121.408 36.744C90.1832 18.8743 50.3846 29.7004 32.5149 60.9247C14.6452 92.149 25.4713 131.948 56.6956 149.817C87.9199 167.687 127.718 156.861 145.588 125.637Z" fill="#8E8E8E"/>
<path d="M38.8493 166.127L71.4308 93.1395L67.3712 91.1833L30.3516 162.067C29.1527 164.423 30.1202 167.305 32.4971 168.462C34.8949 169.619 37.7555 168.567 38.8493 166.127Z" fill="#E2E2E2"/>
<path d="M88.8358 87.8165C94.0753 76.9429 92.0022 65.0825 84.2054 61.3256C76.4086 57.5687 65.8406 63.338 60.6012 74.2116C55.3617 85.0852 57.4348 96.9456 65.2316 100.702C73.0283 104.459 83.5963 98.6901 88.8358 87.8165Z" fill="#F2F2F2"/>
<path opacity="0.2" d="M83.597 85.491C87.4094 77.5791 86.4616 69.2194 81.48 66.819C76.4984 64.4186 69.3695 68.8866 65.5572 76.7985C61.7448 84.7104 62.6927 93.0702 67.6742 95.4705C72.6558 97.8709 79.7847 93.4029 83.597 85.491Z" fill="#B3B3B3"/>
<path d="M152.79 184.868L120.167 111.902L115.981 113.626L144.103 188.486C145.05 190.947 147.848 192.167 150.308 191.157C152.748 190.148 153.884 187.308 152.79 184.868Z" fill="#E2E2E2"/>
<path d="M115.539 83.2115L121.66 98.0403C122.08 99.071 121.597 100.228 120.566 100.649C119.535 101.069 118.378 100.585 117.958 99.5548L111.038 82.8118C110.785 82.1808 110.154 81.7812 109.481 81.8232C108.366 81.8653 107.63 83.0011 108.072 84.0528L115.118 101.111C115.476 101.974 115.055 102.962 114.214 103.299L113.562 103.572C112.741 103.909 111.795 103.53 111.458 102.689L104.496 85.8407C104.033 84.7049 102.561 84.4314 101.698 85.2938C101.215 85.7776 101.067 86.5138 101.341 87.1448L108.345 104.119C108.661 104.876 108.303 105.739 107.546 106.054L106.578 106.454C105.821 106.769 104.959 106.412 104.643 105.655L98.5434 90.8467C98.291 90.2368 97.4286 90.3209 97.2603 90.9309C96.0193 95.7476 96.44 101.637 98.8168 107.4C103.423 118.569 113.646 124.922 121.639 121.64C129.631 118.338 132.387 106.622 127.78 95.4532C125.277 89.4164 121.134 84.768 116.59 82.307C115.938 81.9705 115.265 82.5804 115.539 83.2115Z" fill="#F2F2F2"/>
</svg>
