<svg width="11" height="13" viewBox="0 0 11 13" fill="none" xmlns="http://www.w3.org/2000/svg">
<path d="M6.45838 10.5358C6.17234 10.7929 5.93611 11.1531 5.75769 11.4909C5.57961 11.8282 5.43962 12.1806 5.35514 12.4654C5.27033 12.1803 5.13015 11.8278 4.952 11.4906C4.77361 11.1529 4.53767 10.7931 4.25222 10.5361L4.25215 10.536C4.16206 10.4549 4.02129 10.3629 3.8971 10.282C3.86858 10.2634 3.83905 10.2442 3.80853 10.2244C3.68848 10.1465 3.55307 10.0586 3.40282 9.95642C3.02793 9.70138 2.57764 9.36809 2.14377 8.94647C1.27597 8.10317 0.5 6.93425 0.5 5.35515C0.5 2.67372 2.67372 0.5 5.35515 0.5C8.03658 0.5 10.2103 2.67372 10.2103 5.35515C10.2103 6.93425 9.43432 8.10317 8.56652 8.94647C8.13266 9.36809 7.68236 9.70138 7.30747 9.95642C7.15722 10.0586 7.02181 10.1465 6.90176 10.2244C6.87124 10.2442 6.84172 10.2634 6.81319 10.282C6.68912 10.3628 6.54849 10.4548 6.45838 10.5358ZM6.45838 10.5358L6.79262 10.9077M6.45838 10.5358C6.4583 10.5359 6.45822 10.5359 6.45814 10.536L6.79262 10.9077M6.79262 10.9077C6.34661 11.3085 5.97864 12.1133 5.83022 12.6221L3.91767 10.9077C3.8523 10.8488 3.7185 10.762 3.53824 10.6451C2.51603 9.98181 0 8.34932 0 5.35515C0 2.39758 2.39758 0 5.35515 0C8.31272 0 10.7103 2.39758 10.7103 5.35515C10.7103 8.34932 8.19426 9.98181 7.17205 10.6451C6.99179 10.762 6.85799 10.8488 6.79262 10.9077ZM3.3251 5.35515C3.3251 6.47664 4.23366 7.38519 5.35515 7.38519C6.47664 7.38519 7.38519 6.47664 7.38519 5.35515C7.38519 4.23366 6.47664 3.3251 5.35515 3.3251C4.23366 3.3251 3.3251 4.23366 3.3251 5.35515Z" stroke="#575757"/>
</svg>
